<svg width="162" height="30" viewBox="0 0 162 30" fill="none" xmlns="http://www.w3.org/2000/svg">
<path d="M15 25.0092L9.83193 20.4621C6.17647 17.2458 0 19.5194 0 24.0665V30H30V11.8115L15 25.0092Z" fill="#5A189A"/>
<path d="M15 4.99076L20.1681 9.53789C23.8235 12.7542 30 10.4806 30 5.93346V0H0V18.1885L15 4.99076Z" fill="#5A189A"/>
<path d="M43.25 25V17.866L36.406 4.7H40.843L45.628 14.734H44.845L49.601 4.7H54.009L47.165 17.866V25H43.25ZM59.4587 25.348C58.0667 25.348 56.8101 25.029 55.6887 24.391C54.5867 23.7337 53.7071 22.8347 53.0497 21.694C52.4117 20.534 52.0927 19.2097 52.0927 17.721C52.0927 16.1937 52.4117 14.8597 53.0497 13.719C53.7071 12.559 54.5964 11.66 55.7177 11.022C56.8391 10.3647 58.0957 10.036 59.4877 10.036C60.8991 10.036 62.1557 10.3647 63.2577 11.022C64.3791 11.66 65.2587 12.559 65.8967 13.719C66.5541 14.8597 66.8827 16.184 66.8827 17.692C66.8827 19.2 66.5541 20.534 65.8967 21.694C65.2587 22.8347 64.3791 23.7337 63.2577 24.391C62.1364 25.029 60.8701 25.348 59.4587 25.348ZM59.4587 21.955C60.1161 21.955 60.6961 21.8003 61.1987 21.491C61.7207 21.1817 62.1267 20.708 62.4167 20.07C62.7261 19.432 62.8807 18.6393 62.8807 17.692C62.8807 16.7447 62.7261 15.9617 62.4167 15.343C62.1267 14.705 61.7207 14.2313 61.1987 13.922C60.6961 13.5933 60.1257 13.429 59.4877 13.429C58.8691 13.429 58.2987 13.5933 57.7767 13.922C57.2547 14.2313 56.8391 14.705 56.5297 15.343C56.2397 15.9617 56.0947 16.7447 56.0947 17.692C56.0947 18.6393 56.2397 19.432 56.5297 20.07C56.8391 20.708 57.2451 21.1817 57.7477 21.491C58.2697 21.8003 58.8401 21.955 59.4587 21.955ZM74.5489 25.348C73.3696 25.348 72.3546 25.1063 71.5039 24.623C70.6726 24.1203 70.0346 23.3953 69.5899 22.448C69.1453 21.4813 68.9229 20.2923 68.9229 18.881V10.384H72.8379V18.475C72.8379 19.6543 73.0796 20.5437 73.5629 21.143C74.0656 21.7423 74.8293 22.042 75.8539 22.042C76.5113 22.042 77.0913 21.897 77.5939 21.607C78.0966 21.2977 78.4929 20.8627 78.7829 20.302C79.0923 19.722 79.2469 19.0163 79.2469 18.185V10.384H83.1329V25H79.7109L79.3919 22.622C78.9666 23.4533 78.3383 24.1203 77.5069 24.623C76.6756 25.1063 75.6896 25.348 74.5489 25.348ZM85.807 25V10.384H89.287L89.664 13.081C90.012 12.443 90.447 11.9017 90.969 11.457C91.5104 11.0123 92.1194 10.6643 92.796 10.413C93.492 10.1617 94.2557 10.036 95.087 10.036V14.183H93.753C93.173 14.183 92.6317 14.2507 92.129 14.386C91.6457 14.5213 91.2204 14.7437 90.853 15.053C90.4857 15.343 90.2054 15.749 90.012 16.271C89.8187 16.793 89.722 17.4503 89.722 18.243V25H85.807ZM105.155 25.348C104.401 25.348 103.725 25.2513 103.125 25.058C102.545 24.8647 102.023 24.6037 101.559 24.275C101.115 23.927 100.738 23.5403 100.428 23.115L99.9933 25H96.5133V4.12H100.428V12.414C100.892 11.7373 101.501 11.1767 102.255 10.732C103.029 10.268 103.986 10.036 105.126 10.036C106.48 10.036 107.678 10.3743 108.722 11.051C109.786 11.7083 110.617 12.617 111.216 13.777C111.835 14.9177 112.144 16.2323 112.144 17.721C112.144 19.171 111.835 20.476 111.216 21.636C110.617 22.796 109.795 23.7047 108.751 24.362C107.707 25.0193 106.509 25.348 105.155 25.348ZM104.227 21.926C105.001 21.926 105.677 21.752 106.257 21.404C106.857 21.0367 107.321 20.5437 107.649 19.925C107.978 19.287 108.142 18.5523 108.142 17.721C108.142 16.8897 107.978 16.155 107.649 15.517C107.321 14.8597 106.857 14.357 106.257 14.009C105.677 13.6417 105.001 13.458 104.227 13.458C103.473 13.458 102.797 13.6417 102.197 14.009C101.617 14.357 101.153 14.85 100.805 15.488C100.477 16.126 100.312 16.8607 100.312 17.692C100.312 18.5233 100.477 19.2677 100.805 19.925C101.153 20.563 101.617 21.056 102.197 21.404C102.797 21.752 103.473 21.926 104.227 21.926ZM119.286 25.348C118.068 25.348 117.063 25.1547 116.27 24.768C115.478 24.362 114.888 23.8303 114.501 23.173C114.134 22.4963 113.95 21.752 113.95 20.94C113.95 20.0507 114.173 19.2677 114.617 18.591C115.081 17.9143 115.768 17.3827 116.676 16.996C117.604 16.6093 118.764 16.416 120.156 16.416H123.781C123.781 15.7007 123.685 15.111 123.491 14.647C123.298 14.1637 122.998 13.806 122.592 13.574C122.186 13.342 121.645 13.226 120.968 13.226C120.234 13.226 119.605 13.3903 119.083 13.719C118.581 14.0283 118.271 14.5117 118.155 15.169H114.356C114.453 14.125 114.791 13.226 115.371 12.472C115.971 11.6987 116.754 11.0993 117.72 10.674C118.706 10.2487 119.799 10.036 120.997 10.036C122.37 10.036 123.559 10.268 124.564 10.732C125.57 11.196 126.343 11.863 126.884 12.733C127.426 13.603 127.696 14.676 127.696 15.952V25H124.39L123.955 22.767C123.743 23.1537 123.491 23.5017 123.201 23.811C122.911 24.1203 122.573 24.391 122.186 24.623C121.8 24.855 121.365 25.029 120.881 25.145C120.398 25.2803 119.866 25.348 119.286 25.348ZM120.214 22.332C120.717 22.332 121.162 22.245 121.548 22.071C121.954 21.8777 122.302 21.6263 122.592 21.317C122.882 20.9883 123.105 20.621 123.259 20.215C123.433 19.7897 123.549 19.3353 123.607 18.852V18.823H120.62C120.021 18.823 119.528 18.9003 119.141 19.055C118.774 19.1903 118.503 19.3933 118.329 19.664C118.155 19.9347 118.068 20.244 118.068 20.592C118.068 20.9787 118.155 21.2977 118.329 21.549C118.503 21.8003 118.755 21.9937 119.083 22.129C119.412 22.2643 119.789 22.332 120.214 22.332ZM130.188 25V10.384H133.639L133.929 12.762C134.374 11.95 135.002 11.2927 135.814 10.79C136.646 10.2873 137.632 10.036 138.772 10.036C139.99 10.036 141.015 10.2873 141.846 10.79C142.678 11.2927 143.306 12.0273 143.731 12.994C144.176 13.9607 144.398 15.1497 144.398 16.561V25H140.512V16.938C140.512 15.778 140.261 14.8887 139.758 14.27C139.275 13.6513 138.521 13.342 137.496 13.342C136.839 13.342 136.249 13.4967 135.727 13.806C135.225 14.1153 134.828 14.56 134.538 15.14C134.248 15.7007 134.103 16.387 134.103 17.199V25H130.188ZM156.497 25L150.262 16.996L155.859 10.384H160.47L153.249 18.649V15.546L161.369 25H156.497ZM146.927 25V4.12H150.842V25H146.927Z" fill="#5A189A"/>
</svg>
